Fraunces-LightOpMinGoofyMin.ufo
<glyph name="asterisk" format="2">
  <advance width="1279"/>
  <unicode hex="002A"/>
  <outline>
    <contour>
      <point x="662" y="1048" type="line"/>
      <point x="662" y="1289"/>
      <point x="687" y="1432"/>
      <point x="687" y="1512" type="curve" smooth="yes"/>
      <point x="687" y="1554"/>
      <point x="671" y="1575"/>
      <point x="644" y="1575" type="curve" smooth="yes"/>
      <point x="614" y="1575"/>
      <point x="598" y="1554"/>
      <point x="598" y="1512" type="curve" smooth="yes"/>
      <point x="598" y="1432"/>
      <point x="624" y="1289"/>
      <point x="624" y="1048" type="curve"/>
    </contour>
    <contour>
      <point x="649" y="1065" type="line"/>
      <point x="442" y="1140"/>
      <point x="300" y="1207"/>
      <point x="219" y="1231" type="curve" smooth="yes"/>
      <point x="177" y="1244"/>
      <point x="150" y="1236"/>
      <point x="141" y="1212" type="curve" smooth="yes"/>
      <point x="132" y="1185"/>
      <point x="150" y="1164"/>
      <point x="191" y="1151" type="curve" smooth="yes"/>
      <point x="272" y="1126"/>
      <point x="430" y="1107"/>
      <point x="638" y="1032" type="curve"/>
    </contour>
    <contour>
      <point x="626" y="1058" type="line"/>
      <point x="499" y="863"/>
      <point x="386" y="761"/>
      <point x="337" y="698" type="curve" smooth="yes"/>
      <point x="310" y="664"/>
      <point x="310" y="637"/>
      <point x="332" y="621" type="curve" smooth="yes"/>
      <point x="356" y="605"/>
      <point x="382" y="614"/>
      <point x="409" y="648" type="curve" smooth="yes"/>
      <point x="458" y="712"/>
      <point x="530" y="843"/>
      <point x="657" y="1039" type="curve"/>
    </contour>
    <contour>
      <point x="626" y="1038" type="line"/>
      <point x="755" y="843"/>
      <point x="827" y="712"/>
      <point x="877" y="648" type="curve" smooth="yes"/>
      <point x="903" y="614"/>
      <point x="930" y="606"/>
      <point x="952" y="620" type="curve" smooth="yes"/>
      <point x="977" y="638"/>
      <point x="976" y="664"/>
      <point x="949" y="698" type="curve" smooth="yes"/>
      <point x="899" y="761"/>
      <point x="786" y="863"/>
      <point x="657" y="1057" type="curve"/>
    </contour>
    <contour>
      <point x="638" y="1063" type="curve"/>
      <point x="649" y="1030" type="line"/>
      <point x="856" y="1106"/>
      <point x="1014" y="1126"/>
      <point x="1094" y="1151" type="curve" smooth="yes"/>
      <point x="1135" y="1164"/>
      <point x="1154" y="1185"/>
      <point x="1145" y="1210" type="curve" smooth="yes"/>
      <point x="1135" y="1238"/>
      <point x="1109" y="1244"/>
      <point x="1066" y="1231" type="curve" smooth="yes"/>
      <point x="986" y="1207"/>
      <point x="845" y="1138"/>
    </contour>
  </outline>
</glyph>
<glyph name="zero" format="2">
  <advance width="1200"/>
  <unicode hex="0030"/>
  <outline>
    <contour>
      <point x="609" y="1419" type="curve" smooth="yes"/>
      <point x="304" y="1419"/>
      <point x="107" y="1148"/>
      <point x="107" y="705" type="curve" smooth="yes"/>
      <point x="107" y="255"/>
      <point x="287" y="-20"/>
      <point x="600" y="-20" type="curve" smooth="yes"/>
      <point x="893" y="-20"/>
      <point x="1093" y="241"/>
      <point x="1093" y="701" type="curve" smooth="yes"/>
      <point x="1093" y="1146"/>
      <point x="913" y="1419"/>
    </contour>
    <contour>
      <point x="1012" y="675" type="curve" smooth="yes"/>
      <point x="1012" y="239"/>
      <point x="836" y="22"/>
      <point x="604" y="22" type="curve" smooth="yes"/>
      <point x="344" y="22"/>
      <point x="188" y="244"/>
      <point x="188" y="728" type="curve" smooth="yes"/>
      <point x="188" y="1133"/>
      <point x="353" y="1377"/>
      <point x="605" y="1377" type="curve" smooth="yes"/>
      <point x="855" y="1377"/>
      <point x="1012" y="1149"/>
    </contour>
  </outline>
</glyph>
<glyph name="five" format="2">
  <advance width="1049"/>
  <unicode hex="0035"/>
  <outline>
    <contour>
      <point x="148" y="281" type="curve" smooth="yes"/>
      <point x="148" y="118"/>
      <point x="302" y="-20"/>
      <point x="535" y="-20" type="curve" smooth="yes"/>
      <point x="789" y="-20"/>
      <point x="960" y="156"/>
      <point x="960" y="423" type="curve" smooth="yes"/>
      <point x="960" y="666"/>
      <point x="814" y="841"/>
      <point x="580" y="841" type="curve" smooth="yes"/>
      <point x="437" y="841"/>
      <point x="303" y="756"/>
      <point x="227" y="622" type="curve"/>
      <point x="242" y="621" type="line"/>
      <point x="242" y="1365" type="line"/>
      <point x="234" y="1359" type="line"/>
      <point x="341" y="1273"/>
      <point x="470" y="1227"/>
      <point x="625" y="1227" type="curve" smooth="yes"/>
      <point x="775" y="1227"/>
      <point x="899" y="1302"/>
      <point x="938" y="1417" type="curve" smooth="yes"/>
      <point x="949" y="1439"/>
      <point x="942" y="1446"/>
      <point x="934" y="1449" type="curve" smooth="yes"/>
      <point x="922" y="1455"/>
      <point x="908" y="1451"/>
      <point x="893" y="1432" type="curve" smooth="yes"/>
      <point x="844" y="1338"/>
      <point x="749" y="1292"/>
      <point x="627" y="1292" type="curve" smooth="yes"/>
      <point x="482" y="1292"/>
      <point x="394" y="1337"/>
      <point x="285" y="1413" type="curve" smooth="yes"/>
      <point x="267" y="1424"/>
      <point x="254" y="1428"/>
      <point x="239" y="1428" type="curve" smooth="yes"/>
      <point x="208" y="1428"/>
      <point x="194" y="1413"/>
      <point x="194" y="1389" type="curve" smooth="yes"/>
      <point x="194" y="593" type="line" smooth="yes"/>
      <point x="194" y="574"/>
      <point x="201" y="562"/>
      <point x="216" y="562" type="curve" smooth="yes"/>
      <point x="237" y="562"/>
      <point x="249" y="573"/>
      <point x="266" y="591" type="curve" smooth="yes"/>
      <point x="340" y="720"/>
      <point x="449" y="799"/>
      <point x="570" y="799" type="curve" smooth="yes"/>
      <point x="756" y="799"/>
      <point x="881" y="665"/>
      <point x="881" y="420" type="curve" smooth="yes"/>
      <point x="881" y="156"/>
      <point x="736" y="22"/>
      <point x="548" y="22" type="curve" smooth="yes"/>
      <point x="350" y="22"/>
      <point x="248" y="102"/>
      <point x="248" y="224" type="curve" smooth="yes"/>
      <point x="248" y="294" type="line" smooth="yes"/>
      <point x="248" y="336"/>
      <point x="233" y="360"/>
      <point x="203" y="360" type="curve" smooth="yes"/>
      <point x="170" y="360"/>
      <point x="148" y="329"/>
    </contour>
  </outline>
</glyph>
<glyph name="L" format="2">
  <advance width="1158"/>
  <unicode hex="004C"/>
  <anchor x="551" y="1480" name="center"/>
  <anchor x="954" y="858" name="right"/>
  <outline>
    <contour>
      <point x="505" y="1366" type="line" smooth="yes"/>
      <point x="525" y="1369"/>
      <point x="536" y="1374"/>
      <point x="536" y="1384" type="curve" smooth="yes"/>
      <point x="536" y="1394"/>
      <point x="526" y="1400"/>
      <point x="508" y="1400" type="curve" smooth="yes"/>
      <point x="147" y="1400" type="line" smooth="yes"/>
      <point x="129" y="1400"/>
      <point x="119" y="1394"/>
      <point x="119" y="1384" type="curve" smooth="yes"/>
      <point x="119" y="1374"/>
      <point x="131" y="1369"/>
      <point x="151" y="1366" type="curve" smooth="yes"/>
      <point x="217" y="1353" type="line" smooth="yes"/>
      <point x="263" y="1346"/>
      <point x="289" y="1328"/>
      <point x="289" y="1291" type="curve" smooth="yes"/>
      <point x="289" y="109" type="line" smooth="yes"/>
      <point x="289" y="72"/>
      <point x="263" y="54"/>
      <point x="217" y="47" type="curve" smooth="yes"/>
      <point x="151" y="34" type="line" smooth="yes"/>
      <point x="131" y="31"/>
      <point x="119" y="26"/>
      <point x="119" y="16" type="curve" smooth="yes"/>
      <point x="119" y="6"/>
      <point x="129" y="0"/>
      <point x="147" y="0" type="curve" smooth="yes"/>
      <point x="891" y="0" type="line" smooth="yes"/>
      <point x="928" y="0"/>
      <point x="951" y="-38"/>
      <point x="978" y="-38" type="curve" smooth="yes"/>
      <point x="993" y="-38"/>
      <point x="1003" y="-31"/>
      <point x="1007" y="-13" type="curve" smooth="yes"/>
      <point x="1087" y="330" type="line" smooth="yes"/>
      <point x="1091" y="347"/>
      <point x="1087" y="357"/>
      <point x="1075" y="358" type="curve" smooth="yes"/>
      <point x="1062" y="359"/>
      <point x="1054" y="353"/>
      <point x="1047" y="340" type="curve" smooth="yes"/>
      <point x="996" y="207" type="line" smooth="yes"/>
      <point x="944" y="77"/>
      <point x="881" y="40"/>
      <point x="774" y="40" type="curve" smooth="yes"/>
      <point x="476" y="40" type="line" smooth="yes"/>
      <point x="399" y="40"/>
      <point x="367" y="64"/>
      <point x="367" y="109" type="curve" smooth="yes"/>
      <point x="367" y="1291" type="line" smooth="yes"/>
      <point x="367" y="1328"/>
      <point x="393" y="1346"/>
      <point x="438" y="1353" type="curve" smooth="yes"/>
    </contour>
  </outline>
</glyph>
<glyph name="N" format="2">
  <advance width="1557"/>
  <unicode hex="004E"/>
  <anchor x="763" y="1539" name="center"/>
  <outline>
    <contour>
      <point x="535" y="16" type="curve" smooth="yes"/>
      <point x="535" y="26"/>
      <point x="523" y="31"/>
      <point x="503" y="34" type="curve" smooth="yes"/>
      <point x="420" y="54" type="line" smooth="yes"/>
      <point x="373" y="62"/>
      <point x="346" y="79"/>
      <point x="346" y="117" type="curve" smooth="yes"/>
      <point x="346" y="1211" type="line"/>
      <point x="315" y="1202" type="line"/>
      <point x="1186" y="80" type="line" smooth="yes"/>
      <point x="1212" y="54"/>
      <point x="1218" y="41"/>
      <point x="1218" y="18" type="curve" smooth="yes"/>
      <point x="1218" y="6"/>
      <point x="1225" y="0"/>
      <point x="1240" y="0" type="curve" smooth="yes"/>
      <point x="1330" y="0" type="line" smooth="yes"/>
      <point x="1347" y="0"/>
      <point x="1353" y="5"/>
      <point x="1353" y="10" type="curve" smooth="yes"/>
      <point x="1353" y="16"/>
      <point x="1345" y="26"/>
      <point x="1336" y="37" type="curve" smooth="yes"/>
      <point x="1285" y="107" type="line" smooth="yes"/>
      <point x="1274" y="120"/>
      <point x="1262" y="132"/>
      <point x="1262" y="149" type="curve" smooth="yes"/>
      <point x="1262" y="1283" type="line" smooth="yes"/>
      <point x="1262" y="1321"/>
      <point x="1288" y="1338"/>
      <point x="1333" y="1346" type="curve" smooth="yes"/>
      <point x="1400" y="1366" type="line" smooth="yes"/>
      <point x="1420" y="1369"/>
      <point x="1432" y="1374"/>
      <point x="1432" y="1384" type="curve" smooth="yes"/>
      <point x="1432" y="1394"/>
      <point x="1422" y="1400"/>
      <point x="1404" y="1400" type="curve" smooth="yes"/>
      <point x="1051" y="1400" type="line" smooth="yes"/>
      <point x="1032" y="1400"/>
      <point x="1022" y="1394"/>
      <point x="1022" y="1384" type="curve" smooth="yes"/>
      <point x="1022" y="1374"/>
      <point x="1034" y="1369"/>
      <point x="1054" y="1366" type="curve" smooth="yes"/>
      <point x="1136" y="1346" type="line" smooth="yes"/>
      <point x="1184" y="1338"/>
      <point x="1211" y="1321"/>
      <point x="1211" y="1283" type="curve" smooth="yes"/>
      <point x="1211" y="139" type="line"/>
      <point x="1242" y="154" type="line"/>
      <point x="274" y="1371" type="line" smooth="yes"/>
      <point x="258" y="1392"/>
      <point x="246" y="1400"/>
      <point x="226" y="1400" type="curve" smooth="yes"/>
      <point x="164" y="1400" type="line" smooth="yes"/>
      <point x="148" y="1400"/>
      <point x="145" y="1398"/>
      <point x="145" y="1393" type="curve" smooth="yes"/>
      <point x="145" y="1389"/>
      <point x="150" y="1384"/>
      <point x="162" y="1373" type="curve" smooth="yes"/>
      <point x="252" y="1263" type="line" smooth="yes"/>
      <point x="279" y="1234"/>
      <point x="295" y="1216"/>
      <point x="295" y="1182" type="curve" smooth="yes"/>
      <point x="295" y="117" type="line" smooth="yes"/>
      <point x="295" y="79"/>
      <point x="270" y="62"/>
      <point x="224" y="54" type="curve" smooth="yes"/>
      <point x="157" y="34" type="line" smooth="yes"/>
      <point x="137" y="31"/>
      <point x="125" y="26"/>
      <point x="125" y="16" type="curve" smooth="yes"/>
      <point x="125" y="6"/>
      <point x="135" y="0"/>
      <point x="153" y="0" type="curve" smooth="yes"/>
      <point x="506" y="0" type="line" smooth="yes"/>
      <point x="525" y="0"/>
      <point x="535" y="6"/>
    </contour>
  </outline>
</glyph>
<glyph name="R" format="2">
  <advance width="1277"/>
  <unicode hex="0052"/>
  <anchor x="647" y="1476" name="center"/>
  <outline>
    <contour>
      <point x="1127" y="934" type="curve" smooth="yes"/>
      <point x="1127" y="1200"/>
      <point x="906" y="1400"/>
      <point x="528" y="1400" type="curve" smooth="yes"/>
      <point x="147" y="1400" type="line" smooth="yes"/>
      <point x="129" y="1400"/>
      <point x="119" y="1394"/>
      <point x="119" y="1384" type="curve" smooth="yes"/>
      <point x="119" y="1374"/>
      <point x="131" y="1369"/>
      <point x="151" y="1366" type="curve" smooth="yes"/>
      <point x="217" y="1353" type="line" smooth="yes"/>
      <point x="263" y="1346"/>
      <point x="289" y="1328"/>
      <point x="289" y="1291" type="curve" smooth="yes"/>
      <point x="289" y="109" type="line" smooth="yes"/>
      <point x="289" y="72"/>
      <point x="263" y="54"/>
      <point x="217" y="47" type="curve" smooth="yes"/>
      <point x="151" y="34" type="line" smooth="yes"/>
      <point x="131" y="31"/>
      <point x="119" y="26"/>
      <point x="119" y="16" type="curve" smooth="yes"/>
      <point x="119" y="6"/>
      <point x="129" y="0"/>
      <point x="147" y="0" type="curve" smooth="yes"/>
      <point x="532" y="0" type="line" smooth="yes"/>
      <point x="550" y="0"/>
      <point x="560" y="6"/>
      <point x="560" y="16" type="curve" smooth="yes"/>
      <point x="560" y="26"/>
      <point x="549" y="33"/>
      <point x="529" y="34" type="curve" smooth="yes"/>
      <point x="438" y="47" type="line" smooth="yes"/>
      <point x="393" y="51"/>
      <point x="367" y="72"/>
      <point x="367" y="109" type="curve" smooth="yes"/>
      <point x="367" y="1360" type="line"/>
      <point x="528" y="1360" type="line" smooth="yes"/>
      <point x="852" y="1360"/>
      <point x="1042" y="1182"/>
      <point x="1042" y="939" type="curve" smooth="yes"/>
      <point x="1042" y="713"/>
      <point x="893" y="574"/>
      <point x="644" y="574" type="curve" smooth="yes"/>
      <point x="567" y="574"/>
      <point x="421" y="587"/>
      <point x="328" y="648" type="curve"/>
      <point x="315" y="610" type="line"/>
      <point x="402" y="554"/>
      <point x="539" y="533"/>
      <point x="651" y="533" type="curve" smooth="yes"/>
      <point x="697" y="533"/>
      <point x="740" y="537"/>
      <point x="782" y="544" type="curve" smooth="yes"/>
      <point x="990" y="583"/>
      <point x="1127" y="728"/>
    </contour>
    <contour>
      <point x="718" y="556" type="line"/>
      <point x="1023" y="98" type="line" smooth="yes"/>
      <point x="1045" y="64"/>
      <point x="1042" y="44"/>
      <point x="1007" y="40" type="curve" smooth="yes"/>
      <point x="952" y="34" type="line" smooth="yes"/>
      <point x="932" y="33"/>
      <point x="921" y="26"/>
      <point x="921" y="16" type="curve" smooth="yes"/>
      <point x="921" y="6"/>
      <point x="931" y="0"/>
      <point x="949" y="0" type="curve" smooth="yes"/>
      <point x="1269" y="0" type="line" smooth="yes"/>
      <point x="1288" y="0"/>
      <point x="1298" y="6"/>
      <point x="1298" y="16" type="curve" smooth="yes"/>
      <point x="1298" y="28"/>
      <point x="1287" y="31"/>
      <point x="1234" y="39" type="curve" smooth="yes"/>
      <point x="1191" y="47"/>
      <point x="1144" y="57"/>
      <point x="1114" y="107" type="curve" smooth="yes"/>
      <point x="799" y="568" type="line"/>
    </contour>
  </outline>
</glyph>
<glyph name="f" format="2">
  <advance width="595"/>
  <unicode hex="0066"/>
  <outline>
    <contour>
      <point x="328" y="93" type="curve" smooth="yes"/>
      <point x="328" y="884" type="line"/>
      <point x="531" y="884" type="line" smooth="yes"/>
      <point x="558" y="884"/>
      <point x="573" y="893"/>
      <point x="573" y="906" type="curve" smooth="yes"/>
      <point x="573" y="918"/>
      <point x="565" y="923"/>
      <point x="547" y="923" type="curve"/>
      <point x="313" y="923" type="line"/>
      <point x="328" y="900" type="line" smooth="yes"/>
      <point x="328" y="929" type="line" smooth="yes"/>
      <point x="328" y="1014"/>
      <point x="228" y="1127"/>
      <point x="228" y="1268" type="curve" smooth="yes"/>
      <point x="228" y="1376"/>
      <point x="293" y="1439"/>
      <point x="390" y="1439" type="curve" smooth="yes"/>
      <point x="463" y="1439"/>
      <point x="497" y="1401"/>
      <point x="497" y="1337" type="curve" smooth="yes"/>
      <point x="497" y="1300" type="line" smooth="yes"/>
      <point x="497" y="1262"/>
      <point x="519" y="1243"/>
      <point x="548" y="1243" type="curve" smooth="yes"/>
      <point x="576" y="1243"/>
      <point x="596" y="1267"/>
      <point x="596" y="1312" type="curve" smooth="yes"/>
      <point x="596" y="1403"/>
      <point x="524" y="1473"/>
      <point x="403" y="1473" type="curve" smooth="yes"/>
      <point x="271" y="1473"/>
      <point x="167" y="1375"/>
      <point x="167" y="1241" type="curve" smooth="yes"/>
      <point x="167" y="1098"/>
      <point x="267" y="1011"/>
      <point x="267" y="921" type="curve" smooth="yes"/>
      <point x="267" y="884" type="line"/>
      <point x="285" y="923" type="line"/>
      <point x="117" y="923" type="line" smooth="yes"/>
      <point x="105" y="923"/>
      <point x="98" y="916"/>
      <point x="98" y="908" type="curve" smooth="yes"/>
      <point x="98" y="896"/>
      <point x="115" y="891"/>
      <point x="143" y="884" type="curve" smooth="yes"/>
      <point x="213" y="870" type="line" smooth="yes"/>
      <point x="248" y="860"/>
      <point x="260" y="845"/>
      <point x="260" y="816" type="curve" smooth="yes"/>
      <point x="260" y="92" type="line" smooth="yes"/>
      <point x="260" y="67"/>
      <point x="243" y="52"/>
      <point x="212" y="46" type="curve" smooth="yes"/>
      <point x="148" y="36" type="line" smooth="yes"/>
      <point x="130" y="33"/>
      <point x="118" y="28"/>
      <point x="118" y="16" type="curve" smooth="yes"/>
      <point x="118" y="6"/>
      <point x="128" y="0"/>
      <point x="144" y="0" type="curve" smooth="yes"/>
      <point x="486" y="0" type="line" smooth="yes"/>
      <point x="504" y="0"/>
      <point x="512" y="6"/>
      <point x="512" y="16" type="curve"/>
      <point x="512" y="28"/>
      <point x="502" y="34"/>
      <point x="483" y="36" type="curve" smooth="yes"/>
      <point x="378" y="46" type="line" smooth="yes"/>
      <point x="347" y="49"/>
      <point x="328" y="67"/>
    </contour>
  </outline>
</glyph>
<glyph name="n" format="2">
  <advance width="1125"/>
  <unicode hex="006E"/>
  <anchor x="572" y="1088" name="center"/>
  <outline>
    <contour>
      <point x="308" y="899" type="line" smooth="yes"/>
      <point x="308" y="917"/>
      <point x="297" y="927"/>
      <point x="278" y="927" type="curve" smooth="yes"/>
      <point x="270" y="927"/>
      <point x="250" y="919"/>
      <point x="234" y="915" type="curve" smooth="yes"/>
      <point x="108" y="878" type="line" smooth="yes"/>
      <point x="93" y="874"/>
      <point x="83" y="867"/>
      <point x="83" y="857" type="curve" smooth="yes"/>
      <point x="83" y="848"/>
      <point x="93" y="841"/>
      <point x="108" y="841" type="curve" smooth="yes"/>
      <point x="208" y="841" type="line" smooth="yes"/>
      <point x="230" y="841"/>
      <point x="240" y="828"/>
      <point x="240" y="808" type="curve" smooth="yes"/>
      <point x="240" y="92" type="line" smooth="yes"/>
      <point x="240" y="67"/>
      <point x="222" y="52"/>
      <point x="191" y="46" type="curve" smooth="yes"/>
      <point x="127" y="35" type="line" smooth="yes"/>
      <point x="108" y="32"/>
      <point x="98" y="27"/>
      <point x="98" y="16" type="curve" smooth="yes"/>
      <point x="98" y="6"/>
      <point x="107" y="0"/>
      <point x="123" y="0" type="curve" smooth="yes"/>
      <point x="421" y="0" type="line" smooth="yes"/>
      <point x="438" y="0"/>
      <point x="448" y="6"/>
      <point x="448" y="16" type="curve" smooth="yes"/>
      <point x="448" y="28"/>
      <point x="437" y="33"/>
      <point x="417" y="36" type="curve" smooth="yes"/>
      <point x="357" y="46" type="line" smooth="yes"/>
      <point x="326" y="52"/>
      <point x="308" y="67"/>
      <point x="308" y="93" type="curve" smooth="yes"/>
    </contour>
    <contour>
      <point x="289" y="715" type="line" smooth="yes"/>
      <point x="332" y="752" type="line" smooth="yes"/>
      <point x="448" y="853"/>
      <point x="540" y="893"/>
      <point x="622" y="893" type="curve" smooth="yes"/>
      <point x="739" y="893"/>
      <point x="797" y="822"/>
      <point x="820" y="658" type="curve" smooth="yes"/>
      <point x="898" y="99" type="line" smooth="yes"/>
      <point x="902" y="71"/>
      <point x="881" y="53"/>
      <point x="847" y="46" type="curve" smooth="yes"/>
      <point x="784" y="36" type="line" smooth="yes"/>
      <point x="764" y="33"/>
      <point x="753" y="28"/>
      <point x="753" y="16" type="curve" smooth="yes"/>
      <point x="753" y="6"/>
      <point x="763" y="0"/>
      <point x="780" y="0" type="curve" smooth="yes"/>
      <point x="1079" y="0" type="line" smooth="yes"/>
      <point x="1095" y="0"/>
      <point x="1104" y="6"/>
      <point x="1104" y="16" type="curve" smooth="yes"/>
      <point x="1104" y="27"/>
      <point x="1094" y="32"/>
      <point x="1076" y="35" type="curve" smooth="yes"/>
      <point x="1020" y="45" type="line" smooth="yes"/>
      <point x="986" y="50"/>
      <point x="969" y="69"/>
      <point x="965" y="99" type="curve" smooth="yes"/>
      <point x="887" y="673" type="line" smooth="yes"/>
      <point x="863" y="848"/>
      <point x="781" y="940"/>
      <point x="637" y="940" type="curve" smooth="yes"/>
      <point x="529" y="940"/>
      <point x="426" y="886"/>
      <point x="310" y="779" type="curve" smooth="yes"/>
      <point x="264" y="739" type="line"/>
    </contour>
  </outline>
</glyph>
<glyph name="o" format="2">
  <advance width="1105"/>
  <unicode hex="006F"/>
  <outline>
    <contour>
      <point x="553" y="939" type="curve" smooth="yes"/>
      <point x="285" y="939"/>
      <point x="100" y="740"/>
      <point x="100" y="459" type="curve" smooth="yes"/>
      <point x="100" y="176"/>
      <point x="286" y="-22"/>
      <point x="550" y="-22" type="curve" smooth="yes"/>
      <point x="816" y="-22"/>
      <point x="1005" y="176"/>
      <point x="1005" y="459" type="curve" smooth="yes"/>
      <point x="1005" y="739"/>
      <point x="815" y="939"/>
    </contour>
    <contour>
      <point x="625" y="25" type="curve" smooth="yes"/>
      <point x="402" y="-5"/>
      <point x="216" y="145"/>
      <point x="177" y="412" type="curve" smooth="yes"/>
      <point x="141" y="665"/>
      <point x="259" y="865"/>
      <point x="483" y="894" type="curve" smooth="yes"/>
      <point x="711" y="925"/>
      <point x="888" y="778"/>
      <point x="926" y="508" type="curve" smooth="yes"/>
      <point x="962" y="249"/>
      <point x="841" y="54"/>
    </contour>
  </outline>
</glyph>
<glyph name="p" format="2">
  <advance width="1129"/>
  <unicode hex="0070"/>
  <outline>
    <contour>
      <point x="283" y="905" type="line" smooth="yes"/>
      <point x="283" y="923"/>
      <point x="272" y="934"/>
      <point x="253" y="934" type="curve" smooth="yes"/>
      <point x="244" y="934"/>
      <point x="225" y="925"/>
      <point x="209" y="921" type="curve" smooth="yes"/>
      <point x="83" y="884" type="line" smooth="yes"/>
      <point x="68" y="880"/>
      <point x="59" y="873"/>
      <point x="59" y="863" type="curve" smooth="yes"/>
      <point x="59" y="854"/>
      <point x="68" y="847"/>
      <point x="83" y="847" type="curve" smooth="yes"/>
      <point x="183" y="847" type="line" smooth="yes"/>
      <point x="205" y="847"/>
      <point x="215" y="835"/>
      <point x="215" y="814" type="curve" smooth="yes"/>
      <point x="215" y="-391" type="line" smooth="yes"/>
      <point x="215" y="-415"/>
      <point x="198" y="-431"/>
      <point x="167" y="-436" type="curve" smooth="yes"/>
      <point x="111" y="-445" type="line" smooth="yes"/>
      <point x="90" y="-448"/>
      <point x="79" y="-455"/>
      <point x="79" y="-466" type="curve" smooth="yes"/>
      <point x="79" y="-476"/>
      <point x="88" y="-482"/>
      <point x="105" y="-482" type="curve" smooth="yes"/>
      <point x="432" y="-482" type="line" smooth="yes"/>
      <point x="448" y="-482"/>
      <point x="458" y="-476"/>
      <point x="458" y="-466" type="curve" smooth="yes"/>
      <point x="458" y="-454"/>
      <point x="447" y="-448"/>
      <point x="427" y="-446" type="curve" smooth="yes"/>
      <point x="333" y="-436" type="line" smooth="yes"/>
      <point x="302" y="-433"/>
      <point x="283" y="-415"/>
      <point x="283" y="-389" type="curve" smooth="yes"/>
      <point x="283" y="741" type="line"/>
      <point x="283" y="751" type="line"/>
    </contour>
    <contour>
      <point x="250" y="685" type="line"/>
      <point x="347" y="820"/>
      <point x="470" y="896"/>
      <point x="602" y="896" type="curve" smooth="yes"/>
      <point x="804" y="896"/>
      <point x="953" y="737"/>
      <point x="953" y="461" type="curve" smooth="yes"/>
      <point x="953" y="177"/>
      <point x="792" y="21"/>
      <point x="589" y="21" type="curve" smooth="yes"/>
      <point x="448" y="21"/>
      <point x="316" y="107"/>
      <point x="241" y="252" type="curve"/>
      <point x="230" y="215" type="line"/>
      <point x="298" y="68"/>
      <point x="435" y="-22"/>
      <point x="592" y="-22" type="curve" smooth="yes"/>
      <point x="829" y="-22"/>
      <point x="1027" y="163"/>
      <point x="1027" y="473" type="curve" smooth="yes"/>
      <point x="1027" y="744"/>
      <point x="856" y="940"/>
      <point x="621" y="940" type="curve" smooth="yes"/>
      <point x="476" y="940"/>
      <point x="339" y="861"/>
      <point x="242" y="723" type="curve"/>
    </contour>
  </outline>
</glyph>
<glyph name="v" format="2">
  <advance width="1038"/>
  <unicode hex="0076"/>
  <outline>
    <contour>
      <point x="520" y="-15" type="line" smooth="yes"/>
      <point x="541" y="-15"/>
      <point x="550" y="-7"/>
      <point x="559" y="14" type="curve" smooth="yes"/>
      <point x="880" y="803" type="line" smooth="yes"/>
      <point x="898" y="846"/>
      <point x="919" y="871"/>
      <point x="946" y="876" type="curve" smooth="yes"/>
      <point x="995" y="886" type="line" smooth="yes"/>
      <point x="1016" y="889"/>
      <point x="1027" y="894"/>
      <point x="1027" y="907" type="curve" smooth="yes"/>
      <point x="1027" y="917"/>
      <point x="1018" y="923"/>
      <point x="1001" y="923" type="curve" smooth="yes"/>
      <point x="706" y="923" type="line" smooth="yes"/>
      <point x="688" y="923"/>
      <point x="679" y="917"/>
      <point x="679" y="907" type="curve" smooth="yes"/>
      <point x="679" y="894"/>
      <point x="689" y="889"/>
      <point x="709" y="886" type="curve" smooth="yes"/>
      <point x="768" y="876" type="line" smooth="yes"/>
      <point x="828" y="866"/>
      <point x="841" y="841"/>
      <point x="821" y="793" type="curve" smooth="yes"/>
      <point x="521" y="42" type="line" smooth="yes"/>
      <point x="530" y="41" type="line"/>
      <point x="246" y="776" type="line" smooth="yes"/>
      <point x="224" y="831"/>
      <point x="218" y="859"/>
      <point x="298" y="876" type="curve" smooth="yes"/>
      <point x="347" y="886" type="line" smooth="yes"/>
      <point x="367" y="890"/>
      <point x="378" y="894"/>
      <point x="378" y="907" type="curve" smooth="yes"/>
      <point x="378" y="917"/>
      <point x="368" y="923"/>
      <point x="351" y="923" type="curve" smooth="yes"/>
      <point x="42" y="923" type="line" smooth="yes"/>
      <point x="27" y="923"/>
      <point x="16" y="917"/>
      <point x="16" y="907" type="curve" smooth="yes"/>
      <point x="16" y="894"/>
      <point x="28" y="889"/>
      <point x="48" y="886" type="curve" smooth="yes"/>
      <point x="99" y="876" type="line" smooth="yes"/>
      <point x="132" y="870"/>
      <point x="147" y="839"/>
      <point x="162" y="803" type="curve" smooth="yes"/>
      <point x="469" y="16" type="line" smooth="yes"/>
      <point x="478" y="-3"/>
      <point x="488" y="-15"/>
      <point x="509" y="-15" type="curve" smooth="yes"/>
    </contour>
  </outline>
</glyph>
<glyph name="cent" format="2">
  <advance width="933"/>
  <unicode hex="00A2"/>
  <outline>
    <contour>
      <point x="527" y="470" type="curve" smooth="yes"/>
      <point x="527" y="665"/>
      <point x="541" y="979"/>
      <point x="541" y="1046" type="curve" smooth="yes"/>
      <point x="541" y="1075"/>
      <point x="525" y="1087"/>
      <point x="507" y="1087" type="curve" smooth="yes"/>
      <point x="485" y="1087"/>
      <point x="472" y="1074"/>
      <point x="472" y="1049" type="curve" smooth="yes"/>
      <point x="472" y="979"/>
      <point x="485" y="665"/>
      <point x="486" y="470" type="curve" smooth="yes"/>
      <point x="487" y="268"/>
      <point x="470" y="-42"/>
      <point x="470" y="-111" type="curve" smooth="yes"/>
      <point x="470" y="-139"/>
      <point x="483" y="-153"/>
      <point x="504" y="-153" type="curve" smooth="yes"/>
      <point x="525" y="-153"/>
      <point x="539" y="-138"/>
      <point x="539" y="-114" type="curve" smooth="yes"/>
      <point x="539" y="-43"/>
      <point x="528" y="267"/>
    </contour>
    <contour>
      <point x="860" y="692" type="curve" smooth="yes"/>
      <point x="860" y="819"/>
      <point x="728" y="928"/>
      <point x="529" y="928" type="curve" smooth="yes"/>
      <point x="270" y="928"/>
      <point x="100" y="717"/>
      <point x="100" y="451" type="curve" smooth="yes"/>
      <point x="100" y="171"/>
      <point x="266" y="-9"/>
      <point x="520" y="-9" type="curve" smooth="yes"/>
      <point x="710" y="-9"/>
      <point x="851" y="105"/>
      <point x="872" y="258" type="curve" smooth="yes"/>
      <point x="873" y="267"/>
      <point x="868" y="277"/>
      <point x="857" y="277" type="curve" smooth="yes"/>
      <point x="846" y="277"/>
      <point x="842" y="270"/>
      <point x="839" y="259" type="curve" smooth="yes"/>
      <point x="802" y="135"/>
      <point x="697" y="42"/>
      <point x="534" y="42" type="curve" smooth="yes"/>
      <point x="326" y="42"/>
      <point x="172" y="199"/>
      <point x="172" y="475" type="curve" smooth="yes"/>
      <point x="172" y="723"/>
      <point x="314" y="902"/>
      <point x="525" y="902" type="curve" smooth="yes"/>
      <point x="669" y="902"/>
      <point x="758" y="818"/>
      <point x="758" y="714" type="curve" smooth="yes"/>
      <point x="758" y="685" type="line" smooth="yes"/>
      <point x="758" y="653"/>
      <point x="780" y="635"/>
      <point x="810" y="635" type="curve" smooth="yes"/>
      <point x="839" y="635"/>
      <point x="860" y="659"/>
    </contour>
  </outline>
</glyph>
<glyph name="oslash" format="2">
  <advance width="1105"/>
  <unicode hex="00F8"/>
  <outline>
    <contour>
      <point x="201" y="-84" type="curve" smooth="yes"/>
      <point x="213" y="-90"/>
      <point x="224" y="-88"/>
      <point x="232" y="-75" type="curve" smooth="yes"/>
      <point x="328" y="75" type="line"/>
      <point x="335" y="84" type="line"/>
      <point x="808" y="814" type="line"/>
      <point x="813" y="824" type="line"/>
      <point x="911" y="975" type="line" smooth="yes"/>
      <point x="919" y="987"/>
      <point x="918" y="999"/>
      <point x="906" y="1007" type="curve" smooth="yes"/>
      <point x="895" y="1011"/>
      <point x="881" y="1007"/>
      <point x="873" y="993" type="curve" smooth="yes"/>
      <point x="775" y="843" type="line"/>
      <point x="767" y="832" type="line"/>
      <point x="300" y="108" type="line"/>
      <point x="292" y="96" type="line"/>
      <point x="194" y="-55" type="line" smooth="yes"/>
      <point x="186" y="-66"/>
      <point x="190" y="-79"/>
    </contour>
    <component base="o" xScale="1.03041075879" yScale="1.03041075879" xOffset="7"/>
  </outline>
</glyph>
<glyph name="eogonek" format="2">
  <advance width="966"/>
  <unicode hex="0119"/>
  <outline>
    <contour>
      <point x="583" y="27" type="line"/>
      <point x="442" y="-53"/>
      <point x="356" y="-163"/>
      <point x="356" y="-266" type="curve" smooth="yes"/>
      <point x="356" y="-363"/>
      <point x="423" y="-426"/>
      <point x="525" y="-426" type="curve" smooth="yes"/>
      <point x="608" y="-426"/>
      <point x="663" y="-372"/>
      <point x="671" y="-326" type="curve" smooth="yes"/>
      <point x="672" y="-314"/>
      <point x="665" y="-308"/>
      <point x="658" y="-308" type="curve" smooth="yes"/>
      <point x="650" y="-308"/>
      <point x="646" y="-311"/>
      <point x="641" y="-320" type="curve" smooth="yes"/>
      <point x="619" y="-363"/>
      <point x="577" y="-387"/>
      <point x="533" y="-387" type="curve" smooth="yes"/>
      <point x="473" y="-387"/>
      <point x="425" y="-343"/>
      <point x="425" y="-262" type="curve" smooth="yes"/>
      <point x="425" y="-159"/>
      <point x="486" y="-76"/>
      <point x="599" y="-1" type="curve"/>
    </contour>
    <component base="e" xScale="1.03041075879" yScale="1.03041075879" xOffset="7"/>
  </outline>
</glyph>
<glyph name="uogonek" format="2">
  <advance width="1109"/>
  <unicode hex="0173"/>
  <outline>
    <contour>
      <point x="1013" y="33" type="line"/>
      <point x="845" y="-50"/>
      <point x="738" y="-161"/>
      <point x="738" y="-269" type="curve" smooth="yes"/>
      <point x="738" y="-364"/>
      <point x="802" y="-426"/>
      <point x="907" y="-426" type="curve" smooth="yes"/>
      <point x="989" y="-426"/>
      <point x="1045" y="-372"/>
      <point x="1052" y="-326" type="curve" smooth="yes"/>
      <point x="1053" y="-314"/>
      <point x="1047" y="-308"/>
      <point x="1039" y="-308" type="curve" smooth="yes"/>
      <point x="1032" y="-308"/>
      <point x="1027" y="-311"/>
      <point x="1022" y="-320" type="curve" smooth="yes"/>
      <point x="1001" y="-363"/>
      <point x="959" y="-387"/>
      <point x="914" y="-387" type="curve" smooth="yes"/>
      <point x="855" y="-387"/>
      <point x="807" y="-344"/>
      <point x="807" y="-265" type="curve" smooth="yes"/>
      <point x="807" y="-161"/>
      <point x="889" y="-75"/>
      <point x="1021" y="2" type="curve"/>
    </contour>
    <component base="u" xScale="1.03041075879" yScale="1.03041075879" xOffset="7"/>
  </outline>
</glyph>
<glyph name="Schwa" format="2">
  <advance width="1392"/>
  <unicode hex="018F"/>
  <outline>
    <contour>
      <point x="142" y="533" type="curve" smooth="yes"/>
      <point x="142" y="211"/>
      <point x="363" y="-17"/>
      <point x="663" y="-17" type="curve" smooth="yes"/>
      <point x="1032" y="-17"/>
      <point x="1285" y="306"/>
      <point x="1285" y="716" type="curve" smooth="yes"/>
      <point x="1285" y="1127"/>
      <point x="1062" y="1417"/>
      <point x="688" y="1417" type="curve" smooth="yes"/>
      <point x="390" y="1417"/>
      <point x="173" y="1239"/>
      <point x="152" y="1031" type="curve" smooth="yes"/>
      <point x="152" y="1017"/>
      <point x="157" y="1004"/>
      <point x="176" y="1004" type="curve" smooth="yes"/>
      <point x="192" y="1004"/>
      <point x="199" y="1013"/>
      <point x="204" y="1029" type="curve" smooth="yes"/>
      <point x="252" y="1206"/>
      <point x="412" y="1366"/>
      <point x="673" y="1366" type="curve" smooth="yes"/>
      <point x="987" y="1366"/>
      <point x="1201" y="1114"/>
      <point x="1201" y="690" type="curve" smooth="yes"/>
      <point x="1201" y="336"/>
      <point x="1004" y="21"/>
      <point x="674" y="21" type="curve" smooth="yes"/>
      <point x="401" y="21"/>
      <point x="231" y="261"/>
      <point x="231" y="523" type="curve" smooth="yes"/>
      <point x="231" y="581"/>
      <point x="254" y="602"/>
      <point x="303" y="602" type="curve" smooth="yes"/>
      <point x="1251" y="603" type="line"/>
      <point x="1251" y="641" type="line"/>
      <point x="247" y="641" type="line" smooth="yes"/>
      <point x="177" y="641"/>
      <point x="142" y="612"/>
    </contour>
  </outline>
</glyph>
<glyph name="Oogonek" format="2">
  <advance width="1580"/>
  <unicode hex="01EA"/>
  <outline>
    <contour>
      <point x="945" y="32" type="line"/>
      <point x="764" y="-58"/>
      <point x="658" y="-179"/>
      <point x="658" y="-286" type="curve" smooth="yes"/>
      <point x="658" y="-386"/>
      <point x="725" y="-451"/>
      <point x="834" y="-451" type="curve" smooth="yes"/>
      <point x="921" y="-451"/>
      <point x="978" y="-394"/>
      <point x="985" y="-346" type="curve" smooth="yes"/>
      <point x="986" y="-333"/>
      <point x="978" y="-328"/>
      <point x="970" y="-327" type="curve" smooth="yes"/>
      <point x="960" y="-327"/>
      <point x="955" y="-331"/>
      <point x="949" y="-341" type="curve" smooth="yes"/>
      <point x="926" y="-384"/>
      <point x="887" y="-409"/>
      <point x="842" y="-409" type="curve" smooth="yes"/>
      <point x="785" y="-409"/>
      <point x="736" y="-364"/>
      <point x="736" y="-282" type="curve" smooth="yes"/>
      <point x="736" y="-177"/>
      <point x="815" y="-80"/>
      <point x="954" y="2" type="curve"/>
    </contour>
    <component base="O" xScale="1.01" xOffset="8"/>
  </outline>
</glyph>
<glyph name="oogonek" format="2">
  <advance width="1105"/>
  <unicode hex="01EB"/>
  <outline>
    <contour>
      <point x="625" y="18" type="line"/>
      <point x="475" y="-66"/>
      <point x="399" y="-173"/>
      <point x="399" y="-266" type="curve" smooth="yes"/>
      <point x="399" y="-363"/>
      <point x="465" y="-426"/>
      <point x="568" y="-426" type="curve" smooth="yes"/>
      <point x="650" y="-426"/>
      <point x="706" y="-372"/>
      <point x="713" y="-326" type="curve" smooth="yes"/>
      <point x="714" y="-314"/>
      <point x="708" y="-308"/>
      <point x="700" y="-308" type="curve" smooth="yes"/>
      <point x="692" y="-308"/>
      <point x="688" y="-311"/>
      <point x="683" y="-320" type="curve" smooth="yes"/>
      <point x="661" y="-363"/>
      <point x="619" y="-387"/>
      <point x="575" y="-387" type="curve" smooth="yes"/>
      <point x="514" y="-387"/>
      <point x="468" y="-343"/>
      <point x="468" y="-262" type="curve" smooth="yes"/>
      <point x="468" y="-168"/>
      <point x="524" y="-88"/>
      <point x="642" y="-10" type="curve"/>
    </contour>
    <component base="o" xScale="1.03041075879" yScale="1.03041075879" xOffset="7"/>
  </outline>
</glyph>
<glyph name="tildecmb" format="2">
  <advance width="577"/>
  <unicode hex="0303"/>
  <outline>
    <contour>
      <point x="403" y="1092" type="curve" smooth="yes"/>
      <point x="475" y="1092"/>
      <point x="518" y="1143"/>
      <point x="518" y="1250" type="curve" smooth="yes"/>
      <point x="518" y="1268"/>
      <point x="511" y="1274"/>
      <point x="500" y="1274" type="curve" smooth="yes"/>
      <point x="486" y="1274"/>
      <point x="480" y="1265"/>
      <point x="480" y="1250" type="curve" smooth="yes"/>
      <point x="480" y="1189"/>
      <point x="459" y="1156"/>
      <point x="417" y="1156" type="curve" smooth="yes"/>
      <point x="338" y="1156"/>
      <point x="280" y="1272"/>
      <point x="174" y="1272" type="curve" smooth="yes"/>
      <point x="102" y="1272"/>
      <point x="59" y="1220"/>
      <point x="59" y="1113" type="curve" smooth="yes"/>
      <point x="59" y="1095"/>
      <point x="67" y="1089"/>
      <point x="77" y="1089" type="curve" smooth="yes"/>
      <point x="89" y="1089"/>
      <point x="97" y="1099"/>
      <point x="97" y="1113" type="curve" smooth="yes"/>
      <point x="97" y="1176"/>
      <point x="118" y="1208"/>
      <point x="161" y="1208" type="curve" smooth="yes"/>
      <point x="238" y="1208"/>
      <point x="298" y="1092"/>
    </contour>
  </outline>
</glyph>
<glyph name="caroncmb" format="2">
  <advance width="569"/>
  <unicode hex="030C"/>
  <outline>
    <contour>
      <point x="287" y="1157" type="line"/>
      <point x="283" y="1157" type="line"/>
      <point x="483" y="1324" type="line" smooth="yes"/>
      <point x="492" y="1331"/>
      <point x="500" y="1334"/>
      <point x="507" y="1329" type="curve" smooth="yes"/>
      <point x="512" y="1325"/>
      <point x="513" y="1316"/>
      <point x="505" y="1307" type="curve" smooth="yes"/>
      <point x="323" y="1089" type="line" smooth="yes"/>
      <point x="310" y="1074"/>
      <point x="301" y="1065"/>
      <point x="286" y="1065" type="curve" smooth="yes"/>
      <point x="271" y="1065"/>
      <point x="260" y="1074"/>
      <point x="246" y="1089" type="curve" smooth="yes"/>
      <point x="65" y="1307" type="line" smooth="yes"/>
      <point x="57" y="1316"/>
      <point x="57" y="1325"/>
      <point x="63" y="1329" type="curve" smooth="yes"/>
      <point x="71" y="1334"/>
      <point x="77" y="1331"/>
      <point x="87" y="1324" type="curve" smooth="yes"/>
    </contour>
  </outline>
</glyph>
<glyph name="kip" format="2">
  <advance width="1303"/>
  <unicode hex="20AD"/>
  <outline>
    <contour>
      <point x="131" y="733" type="curve" smooth="yes"/>
      <point x="131" y="721"/>
      <point x="144" y="714"/>
      <point x="163" y="714" type="curve" smooth="yes"/>
      <point x="331" y="714" type="line"/>
      <point x="330" y="752" type="line"/>
      <point x="164" y="752" type="line" smooth="yes"/>
      <point x="146" y="752"/>
      <point x="131" y="744"/>
    </contour>
    <contour>
      <point x="421" y="714" type="line"/>
      <point x="1067" y="714" type="line" smooth="yes"/>
      <point x="1087" y="714"/>
      <point x="1099" y="721"/>
      <point x="1099" y="733" type="curve" smooth="yes"/>
      <point x="1099" y="744"/>
      <point x="1087" y="752"/>
      <point x="1067" y="752" type="curve" smooth="yes"/>
      <point x="400" y="752" type="line"/>
    </contour>
    <contour>
      <point x="367" y="109" type="curve" smooth="yes"/>
      <point x="367" y="1291" type="line" smooth="yes"/>
      <point x="367" y="1328"/>
      <point x="393" y="1346"/>
      <point x="438" y="1353" type="curve" smooth="yes"/>
      <point x="505" y="1366" type="line" smooth="yes"/>
      <point x="525" y="1369"/>
      <point x="536" y="1374"/>
      <point x="536" y="1384" type="curve" smooth="yes"/>
      <point x="536" y="1393"/>
      <point x="526" y="1400"/>
      <point x="508" y="1400" type="curve" smooth="yes"/>
      <point x="147" y="1400" type="line" smooth="yes"/>
      <point x="129" y="1400"/>
      <point x="119" y="1394"/>
      <point x="119" y="1384" type="curve" smooth="yes"/>
      <point x="119" y="1374"/>
      <point x="131" y="1369"/>
      <point x="151" y="1366" type="curve" smooth="yes"/>
      <point x="217" y="1353" type="line" smooth="yes"/>
      <point x="263" y="1346"/>
      <point x="289" y="1328"/>
      <point x="289" y="1291" type="curve" smooth="yes"/>
      <point x="289" y="109" type="line" smooth="yes"/>
      <point x="289" y="72"/>
      <point x="263" y="54"/>
      <point x="217" y="47" type="curve" smooth="yes"/>
      <point x="151" y="34" type="line" smooth="yes"/>
      <point x="131" y="31"/>
      <point x="119" y="26"/>
      <point x="119" y="16" type="curve" smooth="yes"/>
      <point x="119" y="6"/>
      <point x="129" y="0"/>
      <point x="147" y="0" type="curve" smooth="yes"/>
      <point x="508" y="0" type="line" smooth="yes"/>
      <point x="526" y="0"/>
      <point x="536" y="7"/>
      <point x="536" y="16" type="curve" smooth="yes"/>
      <point x="536" y="26"/>
      <point x="525" y="31"/>
      <point x="505" y="34" type="curve" smooth="yes"/>
      <point x="438" y="47" type="line" smooth="yes"/>
      <point x="393" y="54"/>
      <point x="367" y="72"/>
    </contour>
    <contour>
      <point x="353" y="732" type="line"/>
      <point x="1016" y="96" type="line" smooth="yes"/>
      <point x="1036" y="78"/>
      <point x="1032" y="53"/>
      <point x="999" y="49" type="curve" smooth="yes"/>
      <point x="908" y="35" type="line" smooth="yes"/>
      <point x="888" y="33"/>
      <point x="877" y="27"/>
      <point x="877" y="16" type="curve" smooth="yes"/>
      <point x="877" y="6"/>
      <point x="887" y="0"/>
      <point x="905" y="0" type="curve" smooth="yes"/>
      <point x="1263" y="0" type="line" smooth="yes"/>
      <point x="1282" y="0"/>
      <point x="1292" y="6"/>
      <point x="1292" y="16" type="curve" smooth="yes"/>
      <point x="1292" y="30"/>
      <point x="1281" y="32"/>
      <point x="1228" y="40" type="curve" smooth="yes"/>
      <point x="1188" y="47"/>
      <point x="1153" y="69"/>
      <point x="1123" y="97" type="curve" smooth="yes"/>
      <point x="461" y="729" type="line"/>
      <point x="417" y="729" type="line"/>
      <point x="1028" y="1292" type="line" smooth="yes"/>
      <point x="1082" y="1338"/>
      <point x="1101" y="1353"/>
      <point x="1168" y="1364" type="curve" smooth="yes"/>
      <point x="1206" y="1369"/>
      <point x="1214" y="1373"/>
      <point x="1214" y="1384" type="curve" smooth="yes"/>
      <point x="1214" y="1395"/>
      <point x="1204" y="1400"/>
      <point x="1185" y="1400" type="curve" smooth="yes"/>
      <point x="865" y="1400" type="line" smooth="yes"/>
      <point x="847" y="1400"/>
      <point x="837" y="1395"/>
      <point x="837" y="1384" type="curve" smooth="yes"/>
      <point x="837" y="1373"/>
      <point x="848" y="1367"/>
      <point x="869" y="1365" type="curve" smooth="yes"/>
      <point x="956" y="1354" type="line" smooth="yes"/>
      <point x="997" y="1349"/>
      <point x="1002" y="1328"/>
      <point x="985" y="1312" type="curve" smooth="yes"/>
    </contour>
  </outline>
</glyph>
<glyph name="bracketangleleft" format="2">
  <advance width="746"/>
  <unicode hex="27E8"/>
  <outline>
    <contour>
      <point x="237" y="633" type="line"/>
      <point x="683" y="1500" type="line" smooth="yes"/>
      <point x="696" y="1524"/>
      <point x="691" y="1541"/>
      <point x="676" y="1541" type="curve" smooth="yes"/>
      <point x="660" y="1541"/>
      <point x="646" y="1528"/>
      <point x="636" y="1512" type="curve" smooth="yes"/>
      <point x="168" y="681" type="line" smooth="yes"/>
      <point x="153" y="658"/>
      <point x="149" y="649"/>
      <point x="149" y="634" type="curve" smooth="yes"/>
      <point x="149" y="618"/>
      <point x="153" y="608"/>
      <point x="168" y="585" type="curve" smooth="yes"/>
      <point x="636" y="-246" type="line" smooth="yes"/>
      <point x="645" y="-262"/>
      <point x="660" y="-276"/>
      <point x="677" y="-276" type="curve" smooth="yes"/>
      <point x="692" y="-276"/>
      <point x="698" y="-259"/>
      <point x="685" y="-236" type="curve" smooth="yes"/>
    </contour>
  </outline>
</glyph>
<glyph name="brevegrave.cap" format="2">
  <advance width="531"/>
  <outline>
    <contour>
      <point x="269" y="1108" type="curve" smooth="yes"/>
      <point x="181" y="1108"/>
      <point x="122" y="1149"/>
      <point x="93" y="1249" type="curve" smooth="yes"/>
      <point x="89" y="1261"/>
      <point x="84" y="1264"/>
      <point x="78" y="1264" type="curve" smooth="yes"/>
      <point x="72" y="1264"/>
      <point x="65" y="1259"/>
      <point x="65" y="1247" type="curve" smooth="yes"/>
      <point x="70" y="1125"/>
      <point x="148" y="1040"/>
      <point x="269" y="1040" type="curve" smooth="yes"/>
      <point x="390" y="1040"/>
      <point x="468" y="1125"/>
      <point x="473" y="1247" type="curve" smooth="yes"/>
      <point x="473" y="1259"/>
      <point x="467" y="1264"/>
      <point x="459" y="1264" type="curve" smooth="yes"/>
      <point x="453" y="1264"/>
      <point x="448" y="1261"/>
      <point x="445" y="1249" type="curve" smooth="yes"/>
      <point x="416" y="1149"/>
      <point x="356" y="1108"/>
    </contour>
    <contour>
      <point x="184" y="1432" type="line" smooth="yes"/>
      <point x="145" y="1473"/>
      <point x="121" y="1497"/>
      <point x="90" y="1490" type="curve" smooth="yes"/>
      <point x="65" y="1482"/>
      <point x="53" y="1460"/>
      <point x="61" y="1439" type="curve" smooth="yes"/>
      <point x="68" y="1415"/>
      <point x="93" y="1397"/>
      <point x="126" y="1376" type="curve" smooth="yes"/>
      <point x="303" y="1263" type="line" smooth="yes"/>
      <point x="309" y="1259"/>
      <point x="317" y="1258"/>
      <point x="323" y="1265" type="curve" smooth="yes"/>
      <point x="330" y="1270"/>
      <point x="325" y="1278"/>
      <point x="318" y="1284" type="curve" smooth="yes"/>
    </contour>
  </outline>
</glyph>
<glyph name="brevetilde.cap" format="2">
  <advance width="538"/>
  <outline>
    <contour>
      <point x="272" y="1108" type="curve" smooth="yes"/>
      <point x="185" y="1108"/>
      <point x="125" y="1149"/>
      <point x="96" y="1249" type="curve" smooth="yes"/>
      <point x="92" y="1261"/>
      <point x="88" y="1264"/>
      <point x="81" y="1264" type="curve" smooth="yes"/>
      <point x="75" y="1264"/>
      <point x="68" y="1259"/>
      <point x="69" y="1247" type="curve" smooth="yes"/>
      <point x="74" y="1125"/>
      <point x="151" y="1040"/>
      <point x="272" y="1040" type="curve" smooth="yes"/>
      <point x="393" y="1040"/>
      <point x="471" y="1125"/>
      <point x="476" y="1247" type="curve" smooth="yes"/>
      <point x="476" y="1259"/>
      <point x="470" y="1264"/>
      <point x="464" y="1264" type="curve" smooth="yes"/>
      <point x="456" y="1264"/>
      <point x="451" y="1261"/>
      <point x="448" y="1249" type="curve" smooth="yes"/>
      <point x="419" y="1149"/>
      <point x="359" y="1108"/>
    </contour>
    <contour>
      <point x="379" y="1311" type="curve" smooth="yes"/>
      <point x="446" y="1311"/>
      <point x="486" y="1360"/>
      <point x="486" y="1464" type="curve" smooth="yes"/>
      <point x="486" y="1483"/>
      <point x="478" y="1488"/>
      <point x="467" y="1488" type="curve" smooth="yes"/>
      <point x="451" y="1488"/>
      <point x="445" y="1479"/>
      <point x="445" y="1464" type="curve" smooth="yes"/>
      <point x="445" y="1406"/>
      <point x="428" y="1374"/>
      <point x="391" y="1374" type="curve" smooth="yes"/>
      <point x="317" y="1374"/>
      <point x="265" y="1482"/>
      <point x="166" y="1482" type="curve" smooth="yes"/>
      <point x="99" y="1482"/>
      <point x="59" y="1432"/>
      <point x="59" y="1329" type="curve" smooth="yes"/>
      <point x="59" y="1311"/>
      <point x="68" y="1306"/>
      <point x="79" y="1306" type="curve" smooth="yes"/>
      <point x="92" y="1306"/>
      <point x="100" y="1315"/>
      <point x="100" y="1329" type="curve" smooth="yes"/>
      <point x="100" y="1389"/>
      <point x="117" y="1420"/>
      <point x="154" y="1420" type="curve" smooth="yes"/>
      <point x="224" y="1420"/>
      <point x="281" y="1311"/>
    </contour>
  </outline>
</glyph>
<glyph name="brevetilde" format="2">
  <advance width="538"/>
  <outline>
    <contour>
      <point x="272" y="1136" type="curve" smooth="yes"/>
      <point x="183" y="1136"/>
      <point x="123" y="1183"/>
      <point x="94" y="1297" type="curve" smooth="yes"/>
      <point x="90" y="1310"/>
      <point x="85" y="1313"/>
      <point x="79" y="1313" type="curve" smooth="yes"/>
      <point x="73" y="1313"/>
      <point x="67" y="1308"/>
      <point x="67" y="1295" type="curve" smooth="yes"/>
      <point x="73" y="1160"/>
      <point x="149" y="1065"/>
      <point x="272" y="1065" type="curve" smooth="yes"/>
      <point x="394" y="1065"/>
      <point x="471" y="1160"/>
      <point x="477" y="1295" type="curve" smooth="yes"/>
      <point x="477" y="1308"/>
      <point x="471" y="1313"/>
      <point x="465" y="1313" type="curve" smooth="yes"/>
      <point x="458" y="1313"/>
      <point x="453" y="1310"/>
      <point x="450" y="1297" type="curve" smooth="yes"/>
      <point x="420" y="1183"/>
      <point x="360" y="1136"/>
    </contour>
    <contour>
      <point x="380" y="1364" type="curve" smooth="yes"/>
      <point x="449" y="1364"/>
      <point x="489" y="1415"/>
      <point x="489" y="1522" type="curve" smooth="yes"/>
      <point x="489" y="1541"/>
      <point x="482" y="1547"/>
      <point x="471" y="1547" type="curve" smooth="yes"/>
      <point x="457" y="1547"/>
      <point x="451" y="1537"/>
      <point x="451" y="1522" type="curve" smooth="yes"/>
      <point x="451" y="1461"/>
      <point x="434" y="1428"/>
      <point x="394" y="1428" type="curve" smooth="yes"/>
      <point x="319" y="1428"/>
      <point x="265" y="1540"/>
      <point x="167" y="1540" type="curve" smooth="yes"/>
      <point x="99" y="1540"/>
      <point x="59" y="1489"/>
      <point x="59" y="1383" type="curve" smooth="yes"/>
      <point x="59" y="1364"/>
      <point x="67" y="1359"/>
      <point x="77" y="1359" type="curve" smooth="yes"/>
      <point x="89" y="1359"/>
      <point x="97" y="1368"/>
      <point x="97" y="1383" type="curve" smooth="yes"/>
      <point x="97" y="1445"/>
      <point x="115" y="1477"/>
      <point x="153" y="1477" type="curve" smooth="yes"/>
      <point x="226" y="1477"/>
      <point x="283" y="1364"/>
    </contour>
  </outline>
</glyph>
<glyph name="dotbelowcmb" format="2">
  <advance width="246"/>
  <outline>
    <contour>
      <point x="123" y="-318" type="curve" smooth="yes"/>
      <point x="162" y="-318"/>
      <point x="187" y="-285"/>
      <point x="187" y="-246" type="curve" smooth="yes"/>
      <point x="187" y="-206"/>
      <point x="162" y="-174"/>
      <point x="123" y="-174" type="curve" smooth="yes"/>
      <point x="85" y="-174"/>
      <point x="59" y="-206"/>
      <point x="59" y="-246" type="curve" smooth="yes"/>
      <point x="59" y="-285"/>
      <point x="85" y="-318"/>
    </contour>
  </outline>
</glyph>
<glyph name="gravedouble.cap" format="2">
  <advance width="552"/>
  <anchor x="362" y="947" name="center"/>
  <outline>
    <contour>
      <point x="176" y="1220" type="line" smooth="yes"/>
      <point x="149" y="1266"/>
      <point x="132" y="1296"/>
      <point x="96" y="1290" type="curve" smooth="yes"/>
      <point x="73" y="1286"/>
      <point x="55" y="1268"/>
      <point x="61" y="1243" type="curve" smooth="yes"/>
      <point x="66" y="1218"/>
      <point x="86" y="1198"/>
      <point x="106" y="1176" type="curve" smooth="yes"/>
      <point x="241" y="1037" type="line" smooth="yes"/>
      <point x="249" y="1030"/>
      <point x="258" y="1027"/>
      <point x="267" y="1032" type="curve" smooth="yes"/>
      <point x="274" y="1037"/>
      <point x="271" y="1046"/>
      <point x="267" y="1055" type="curve" smooth="yes"/>
    </contour>
    <contour>
      <point x="399" y="1220" type="line" smooth="yes"/>
      <point x="374" y="1266"/>
      <point x="355" y="1296"/>
      <point x="319" y="1290" type="curve" smooth="yes"/>
      <point x="295" y="1286"/>
      <point x="280" y="1268"/>
      <point x="284" y="1243" type="curve" smooth="yes"/>
      <point x="289" y="1218"/>
      <point x="309" y="1198"/>
      <point x="329" y="1176" type="curve" smooth="yes"/>
      <point x="466" y="1037" type="line" smooth="yes"/>
      <point x="473" y="1030"/>
      <point x="482" y="1027"/>
      <point x="490" y="1032" type="curve" smooth="yes"/>
      <point x="498" y="1037"/>
      <point x="495" y="1046"/>
      <point x="490" y="1055" type="curve" smooth="yes"/>
    </contour>
  </outline>
</glyph>
<glyph name="ringcmb" format="2">
  <advance width="443"/>
  <outline>
    <contour>
      <point x="221" y="1064" type="curve" smooth="yes"/>
      <point x="310" y="1064"/>
      <point x="384" y="1137"/>
      <point x="384" y="1224" type="curve" smooth="yes"/>
      <point x="384" y="1312"/>
      <point x="310" y="1384"/>
      <point x="221" y="1384" type="curve" smooth="yes"/>
      <point x="132" y="1384"/>
      <point x="59" y="1312"/>
      <point x="59" y="1224" type="curve" smooth="yes"/>
      <point x="59" y="1137"/>
      <point x="132" y="1064"/>
    </contour>
    <contour>
      <point x="221" y="1340" type="curve" smooth="yes"/>
      <point x="284" y="1340"/>
      <point x="335" y="1288"/>
      <point x="335" y="1224" type="curve" smooth="yes"/>
      <point x="335" y="1160"/>
      <point x="284" y="1108"/>
      <point x="221" y="1108" type="curve" smooth="yes"/>
      <point x="160" y="1108"/>
      <point x="107" y="1160"/>
      <point x="107" y="1224" type="curve" smooth="yes"/>
      <point x="107" y="1288"/>
      <point x="160" y="1340"/>
    </contour>
  </outline>
</glyph>
<glyph name="s.alt" format="2">
  <advance width="845"/>
  <outline>
    <contour>
      <point x="381" y="903" type="curve" smooth="yes"/>
      <point x="507" y="903"/>
      <point x="616" y="837"/>
      <point x="680" y="686" type="curve" smooth="yes"/>
      <point x="693" y="663"/>
      <point x="700" y="654"/>
      <point x="715" y="657" type="curve" smooth="yes"/>
      <point x="734" y="662"/>
      <point x="727" y="687"/>
      <point x="720" y="709" type="curve" smooth="yes"/>
      <point x="651" y="926" type="line" smooth="yes"/>
      <point x="648" y="936"/>
      <point x="638" y="940"/>
      <point x="628" y="940" type="curve" smooth="yes"/>
      <point x="613" y="940"/>
      <point x="597" y="890"/>
      <point x="576" y="890" type="curve" smooth="yes"/>
      <point x="544" y="890"/>
      <point x="482" y="942"/>
      <point x="384" y="942" type="curve" smooth="yes"/>
      <point x="224" y="942"/>
      <point x="129" y="841"/>
      <point x="129" y="711" type="curve" smooth="yes"/>
      <point x="129" y="551"/>
      <point x="257" y="482"/>
      <point x="415" y="434" type="curve" smooth="yes"/>
      <point x="576" y="384"/>
      <point x="689" y="327"/>
      <point x="689" y="213" type="curve" smooth="yes"/>
      <point x="689" y="103"/>
      <point x="617" y="25"/>
      <point x="465" y="25" type="curve" smooth="yes"/>
      <point x="340" y="25"/>
      <point x="214" y="95"/>
      <point x="136" y="256" type="curve" smooth="yes"/>
      <point x="129" y="267"/>
      <point x="118" y="274"/>
      <point x="107" y="272" type="curve" smooth="yes"/>
      <point x="91" y="268"/>
      <point x="85" y="257"/>
      <point x="97" y="236" type="curve" smooth="yes"/>
      <point x="185" y="5" type="line" smooth="yes"/>
      <point x="192" y="-9"/>
      <point x="200" y="-15"/>
      <point x="212" y="-15" type="curve" smooth="yes"/>
      <point x="232" y="-15"/>
      <point x="250" y="27"/>
      <point x="276" y="27" type="curve" smooth="yes"/>
      <point x="306" y="27"/>
      <point x="370" y="-14"/>
      <point x="465" y="-14" type="curve" smooth="yes"/>
      <point x="646" y="-14"/>
      <point x="749" y="91"/>
      <point x="749" y="229" type="curve" smooth="yes"/>
      <point x="749" y="377"/>
      <point x="615" y="447"/>
      <point x="455" y="497" type="curve" smooth="yes"/>
      <point x="291" y="547"/>
      <point x="187" y="602"/>
      <point x="187" y="723" type="curve" smooth="yes"/>
      <point x="187" y="829"/>
      <point x="267" y="903"/>
    </contour>
  </outline>
</glyph>
